<?xml version="1.0" standalone="no"?>
<!DOCTYPE svg PUBLIC "-//W3C//DTD SVG 20010904//EN"
 "http://www.w3.org/TR/2001/REC-SVG-20010904/DTD/svg10.dtd">
<svg version="1.0" xmlns="http://www.w3.org/2000/svg"
 width="512.000000pt" height="512.000000pt" viewBox="0 0 512.000000 512.000000"
 preserveAspectRatio="xMidYMid meet">
<metadata>
Created by potrace 1.11, written by Peter Selinger 2001-2013
</metadata>
<g transform="translate(0.000000,512.000000) scale(0.100000,-0.100000)"
fill="#000000" stroke="none">
<path d="M2365 5112 c-92 -6 -328 -46 -439 -74 -211 -53 -447 -149 -651 -266
-72 -42 -232 -147 -245 -161 -3 -4 -21 -18 -40 -32 -136 -103 -328 -294 -448
-447 -178 -227 -343 -542 -425 -814 -37 -122 -83 -323 -92 -403 -17 -156 -20
-205 -20 -355 0 -264 23 -452 85 -675 122 -442 338 -814 665 -1140 385 -385
879 -635 1427 -722 163 -25 607 -26 763 0 417 69 780 218 1110 455 567 407
935 1014 1042 1712 18 123 25 497 11 638 -80 784 -545 1515 -1225 1922 -320
191 -622 296 -1018 351 -74 10 -409 18 -500 11z"/>
</g>
</svg>
